<svg xmlns="http://www.w3.org/2000/svg" height="511pt" viewBox="-15 0 511 511.90626" width="511pt"><path d="m257.554688 477.773438h9.292968c4.710938 0 8.53125-3.820313 8.53125-8.535157 0-4.710937-3.820312-8.53125-8.53125-8.53125h-9.292968c-4.714844 0-8.535157 3.820313-8.535157 8.53125 0 4.714844 3.820313 8.535157 8.535157 8.535157zm0 0"/><path d="m156.09375 469.238281c0 4.714844 3.820312 8.535157 8.53125 8.535157h55.765625c4.714844 0 8.535156-3.820313 8.535156-8.535157 0-4.710937-3.820312-8.53125-8.535156-8.53125h-55.765625c-4.710938 0-8.53125 3.820313-8.53125 8.53125zm0 0"/><path d="m36.121094 118.007812 21.53125 47.496094c9.160156 19.789063 16.289062 40.457032 21.273437 61.6875 3.554688 17.246094 8.210938 34.25 13.945313 50.902344 1.109375 3.027344 2.15625 6.082031 3.199218 9.136719 2.03125 5.976562 4.128907 12.078125 6.742188 18.101562 2.050781 4.804688 4.511719 9.421875 7.355469 13.804688 3.410156 4.980469 7.296875 9.613281 11.613281 13.835937v151.816406c.011719 14.96875 12.144531 27.101563 27.117188 27.117188h142.03125c14.96875-.015625 27.101562-12.148438 27.117187-27.117188v-114.945312c0-17.640625.851563-34.613281 10.941406-48.28125 3.742188-4.769531 7.875-9.21875 12.363281-13.296875 30.507813-29.15625 49.75-66.746094 68.359376-103.097656 18.089843-35.328125 35.183593-68.703125 61.78125-95.335938 9.109374-7.746093 12.394531-20.367187 8.21875-31.574219-6.035157-12.570312-18.867188-20.453124-32.8125-20.152343-22.652344 0-62.222657 31.957031-81.015626 59.238281-.699218.9375-3.554687 4.265625-5.867187 7.039062-1.570313 1.859376-2.910156 3.464844-3.789063 4.605469l-.078124.179688c-5.308594 6.871093-12.679688 11.855469-21.035157 14.21875-8.25 1.953125-16.914062 1.199219-24.703125-2.152344l-45.542968-98.132813c-5.691407-12.410156-17.882813-20.566406-31.527344-21.089843-13.644532-.527344-26.425782 6.667969-33.054688 18.605469-6.789062-6.796876-15.992187-10.632813-25.597656-10.671876-5.304688-.03125-10.550781 1.117188-15.359375 3.359376-8.617187 4.035156-15.300781 11.289062-18.613281 20.207031-16.914063-10.027344-38.742188-4.746094-49.203125 11.90625l-21.640625-44.375c-8.488282-18.226563-30.148438-26.121094-48.375-17.628907-18.226563 8.488282-26.121094 30.148438-17.628906 48.375zm187.65625-77.140624c9.6875-4.316407 21.046875-.160157 25.660156 9.386718l46.933594 101.210938c2.160156 4.644531 2.375 9.957031.605468 14.761718-1.769531 4.804688-5.378906 8.707032-10.035156 10.839844-9.128906 4.121094-19.898437.636719-24.882812-8.054687l-6.714844-14.796875c-.265625-.707032-.402344-1.433594-.726562-2.125l-10.871094-23.441406-31.050782-68.359376c-.835937-8.179687 3.617188-15.984374 11.082032-19.421874zm-57.25 7.917968c2.554687-1.195312 5.339844-1.804687 8.160156-1.773437 7.515625.007812 14.347656 4.371093 17.519531 11.1875l36.480469 78.597656 11.089844 24.5c3.117187 9.328125-1.222656 19.515625-10.109375 23.730469-2.558594 1.191406-5.347657 1.792968-8.167969 1.757812-7.511719-.007812-14.335938-4.367187-17.5-11.175781-.0625-.121094-.171875-.191406-.230469-.308594-.425781-1.574219-.960937-3.117187-1.597656-4.617187l-46.257813-99.78125c-2.238281-8.96875 2.21875-18.265625 10.613282-22.132813zm-62.4375 29.414063c2.6875-7.347657 9.535156-12.351563 17.351562-12.679688 7.820313-.328125 15.0625 4.089844 18.351563 11.1875l46.933593 101.152344c4.488282 9.6875.289063 21.179687-9.386718 25.695313-4.648438 2.160156-9.96875 2.386718-14.785156.625-4.816407-1.757813-8.738282-5.359376-10.898438-10.011719l-46.941406-101.179688c-2.179688-4.648437-2.402344-9.972656-.625-14.789062zm-85.425782-48.527344c2.695313-7.375 9.585938-12.386719 17.433594-12.683594 7.847656-.292969 15.09375 4.191407 18.335938 11.34375l32.359375 66.429688c.285156.449219.605469.867187.964843 1.253906.398438 1.414063.886719 2.804687 1.460938 4.15625l46.929688 101.15625c6.164062 13.3125 19.726562 21.621094 34.386718 21.0625 14.660156-.5625 27.550782-9.878906 32.679688-23.625 8.375 5.019531 18.433594 6.414063 27.859375 3.867187 9.425781-2.546874 17.410156-8.820312 22.121093-17.375 10.222657 10.445313 25.734376 13.695313 39.289063 8.238282 13.558594-5.457032 22.492187-18.546875 22.628906-33.164063 7.972657 1.683594 16.226563 1.558594 24.148438-.367187 12.207031-3.3125 22.976562-10.574219 30.625-20.648438l.121093-.230468c.398438-.496094 1.628907-1.964844 3.070313-3.671876 2.671875-3.15625 5.972656-7.054687 6.742187-8.171874 18.441407-26.832032 53.425782-52.070313 67.078126-52.070313 7.027343-.207031 13.59375 3.488281 17.070312 9.597656 1.644531 3.96875.109375 8.347657-4.542969 13.003907-28.472656 28.527343-46.984375 64.667968-64.851562 99.621093-17.972657 35.085938-36.546875 71.371094-64.992188 98.558594-5.191406 4.742187-9.964843 9.921875-14.273437 15.480469-13.226563 17.859375-14.328125 38.628906-14.328125 58.410156v114.945312c-.003907 5.546876-4.503907 10.046876-10.050781 10.050782h-142.03125c-5.550782-.003906-10.046876-4.503906-10.050782-10.050782v-138.695312c8.507813 5.023438 18.183594 7.730469 28.066406 7.84375 4.710938 0 8.53125-3.820312 8.53125-8.535156 0-4.710938-3.820312-8.53125-8.53125-8.53125-24.347656 0-41.761718-26.035156-42.488281-27.136719-2.304687-3.578125-4.304687-7.339844-5.972656-11.253906-2.339844-5.378907-4.269531-10.933594-6.238281-16.796875-1.085938-3.179688-2.175782-6.363282-3.335938-9.511719-5.460937-15.960937-9.914062-32.25-13.332031-48.769531-5.226563-22.347656-12.714844-44.105469-22.347656-64.9375l-21.632813-47.71875-32.289062-66.289063c-2.175782-4.648437-2.398438-9.972656-.613282-14.785156zm0 0"/></svg>